<svg width="64" height="70" viewBox="0 0 64 70" fill="none" xmlns="http://www.w3.org/2000/svg">
<path d="M30.4713 68.1414C29.9278 67.5407 29.6561 66.7523 29.6561 65.7762C29.6561 64.8001 29.9278 64.0116 30.4713 63.4109L53.5032 37.9565H3.05732C2.1741 37.9565 1.44374 37.6373 0.866242 36.9991C0.288747 36.3609 0 35.5537 0 34.5776C0 33.6014 0.288747 32.7942 0.866242 32.156C1.44374 31.5178 2.1741 31.1986 3.05732 31.1986H53.5032L30.4713 5.74415C29.9278 5.14346 29.6561 4.33627 29.6561 3.3226C29.6561 2.30892 29.9278 1.50174 30.4713 0.901044C31.0149 0.300348 31.7282 0 32.6115 0C33.4947 0 34.2081 0.300348 34.7516 0.901044L63.0828 32.2123C63.4225 32.5877 63.6603 32.9632 63.7962 33.3386C63.9321 33.7141 64 34.127 64 34.5776C64 34.953 63.9321 35.3472 63.7962 35.7602C63.6603 36.1731 63.4225 36.5674 63.0828 36.9428L34.7516 68.2541C34.2081 68.8548 33.4947 69.1363 32.6115 69.0988C31.7282 69.0612 31.0149 68.7421 30.4713 68.1414Z" fill="url(#paint0_linear_201_46)"/>
<defs>
<linearGradient id="paint0_linear_201_46" x1="32" y1="-1.46112e-05" x2="33.4225" y2="99.9586" gradientUnits="userSpaceOnUse">
<stop stop-color="#FF0000"/>
<stop offset="1" stop-color="#922F2F"/>
</linearGradient>
</defs>
</svg>
