<svg width="64" height="70" viewBox="0 0 64 70" fill="none" xmlns="http://www.w3.org/2000/svg">
<path d="M29.2484 68.0925L0.917197 36.9068C0.577495 36.5329 0.339703 36.1589 0.203822 35.785C0.0679405 35.4111 0 34.9998 0 34.551C0 34.1023 0.0679405 33.691 0.203822 33.3171C0.339703 32.9432 0.577495 32.5692 0.917197 32.1953L29.3503 0.89743C29.8938 0.299143 30.5732 0 31.3885 0C32.2038 0 32.9172 0.336536 33.5287 1.00961C34.1401 1.68268 34.4459 2.46793 34.4459 3.36536C34.4459 4.26279 34.1401 5.04804 33.5287 5.72112L10.3949 31.1857H60.9427C61.8259 31.1857 62.5563 31.5035 63.1338 32.1392C63.7113 32.7749 64 33.5788 64 34.551C64 35.5233 63.7113 36.3272 63.1338 36.9629C62.5563 37.5986 61.8259 37.9164 60.9427 37.9164H10.3949L33.6306 63.4932C34.1741 64.0914 34.4459 64.8393 34.4459 65.7367C34.4459 66.6342 34.1401 67.4194 33.5287 68.0925C32.9172 68.7656 32.2038 69.1021 31.3885 69.1021C30.5732 69.1021 29.8599 68.7656 29.2484 68.0925Z" fill="url(#paint0_linear_201_45)"/>
<defs>
<linearGradient id="paint0_linear_201_45" x1="32" y1="-1.46112e-05" x2="33.4225" y2="99.9586" gradientUnits="userSpaceOnUse">
<stop stop-color="#FF0000"/>
<stop offset="1" stop-color="#922F2F"/>
</linearGradient>
</defs>
</svg>
