<svg width="32" height="32" viewBox="0 0 32 32" fill="none" xmlns="http://www.w3.org/2000/svg">
<g clip-path="url(#clip0_260_15)">
<path d="M16 0C11.7565 0 7.68687 1.68571 4.68629 4.68629C1.68571 7.68687 0 11.7565 0 16C0 20.2435 1.68571 24.3131 4.68629 27.3137C7.68687 30.3143 11.7565 32 16 32C20.2435 32 24.3131 30.3143 27.3137 27.3137C30.3143 24.3131 32 20.2435 32 16C32 11.7565 30.3143 7.68687 27.3137 4.68629C24.3131 1.68571 20.2435 0 16 0ZM23.338 23.076C23.2698 23.1879 23.1801 23.2853 23.0741 23.3625C22.9682 23.4397 22.848 23.4952 22.7205 23.5259C22.5931 23.5565 22.4608 23.5617 22.3313 23.5412C22.2018 23.5206 22.0777 23.4747 21.966 23.406C18.208 21.112 13.48 20.592 7.91 21.866C7.65194 21.9249 7.38107 21.8788 7.15696 21.738C6.93286 21.5972 6.77388 21.3731 6.715 21.115C6.65612 20.8569 6.70217 20.5861 6.84301 20.362C6.98385 20.1379 7.20794 19.9789 7.466 19.92C13.562 18.528 18.79 19.126 23.006 21.704C23.2316 21.8423 23.3932 22.0643 23.4554 22.3214C23.5176 22.5786 23.4754 22.8499 23.338 23.076ZM25.296 18.72C25.1227 19.0018 24.8446 19.2033 24.5229 19.2802C24.2011 19.3571 23.862 19.3031 23.58 19.13C19.28 16.488 12.724 15.722 7.636 17.266C7.32631 17.3396 7.00021 17.2923 6.72422 17.1337C6.44822 16.9751 6.24313 16.7172 6.15078 16.4125C6.05842 16.1079 6.08576 15.7795 6.22721 15.4944C6.36867 15.2092 6.61358 14.9888 6.912 14.878C12.722 13.116 19.946 13.97 24.884 17.004C25.1662 17.1769 25.3681 17.4549 25.4453 17.7767C25.5226 18.0985 25.4689 18.4378 25.296 18.72ZM25.464 14.184C20.308 11.12 11.8 10.838 6.876 12.332C6.49621 12.4471 6.08625 12.4066 5.73631 12.2195C5.38636 12.0323 5.1251 11.7138 5.01 11.334C4.8949 10.9542 4.93538 10.5443 5.12254 10.1943C5.3097 9.84436 5.62821 9.5831 6.008 9.468C11.658 7.754 21.054 8.084 26.992 11.608C27.3336 11.8106 27.5807 12.1407 27.679 12.5255C27.7773 12.9103 27.7186 13.3184 27.516 13.66C27.3134 14.0016 26.9833 14.2487 26.5985 14.347C26.2137 14.4453 25.8056 14.3866 25.464 14.184Z" fill="url(#paint0_linear_260_15)"/>
</g>
<defs>
<linearGradient id="paint0_linear_260_15" x1="16" y1="-6.76619e-06" x2="16.6101" y2="46.2905" gradientUnits="userSpaceOnUse">
<stop stop-color="#FF0000"/>
<stop offset="1" stop-color="#922F2F"/>
</linearGradient>
<clipPath id="clip0_260_15">
<rect width="32" height="32" fill="white"/>
</clipPath>
</defs>
</svg>
