<svg width="236" height="22" viewBox="0 0 236 22" fill="none" xmlns="http://www.w3.org/2000/svg">
<path d="M8.192 21.32C6.80533 21.32 5.49333 21.2133 4.256 21C3.01867 20.7653 1.96267 20.4453 1.088 20.04V15.08C2.048 15.528 3.11467 15.8907 4.288 16.168C5.46133 16.4453 6.56 16.584 7.584 16.584C8.65067 16.584 9.45067 16.4987 9.984 16.328C10.5387 16.136 10.816 15.72 10.816 15.08C10.816 14.632 10.656 14.28 10.336 14.024C10.0373 13.768 9.55733 13.5333 8.896 13.32C8.256 13.1067 7.41333 12.84 6.368 12.52C4.98133 12.072 3.88267 11.5813 3.072 11.048C2.26133 10.5147 1.67467 9.864 1.312 9.096C0.970667 8.328 0.8 7.38933 0.8 6.28C0.8 4.25333 1.51467 2.71733 2.944 1.672C4.39467 0.605332 6.53867 0.0719986 9.376 0.0719986C10.5067 0.0719986 11.6693 0.167999 12.864 0.359999C14.08 0.551999 15.0613 0.765333 15.808 1V5.992C14.8053 5.58667 13.8453 5.29867 12.928 5.128C12.0107 4.95733 11.1467 4.872 10.336 4.872C9.39733 4.872 8.59733 4.94667 7.936 5.096C7.27467 5.24533 6.944 5.62933 6.944 6.248C6.944 6.78133 7.22133 7.176 7.776 7.432C8.352 7.66667 9.36533 7.976 10.816 8.36C12.5013 8.808 13.7813 9.352 14.656 9.992C15.552 10.632 16.16 11.3787 16.48 12.232C16.8 13.064 16.96 14.0133 16.96 15.08C16.96 16.9573 16.2347 18.472 14.784 19.624C13.3333 20.7547 11.136 21.32 8.192 21.32ZM23.702 21V4.872H17.91V0.391998H35.51V4.872H29.718V21H23.702ZM46.6963 21.32C44.7763 21.32 43.0803 21.0107 41.6083 20.392C40.1576 19.752 39.0163 18.824 38.1843 17.608C37.3523 16.3707 36.9363 14.856 36.9363 13.064V0.391998H42.9523V12.424C42.9523 14.9413 44.2003 16.2 46.6963 16.2C47.8909 16.2 48.8083 15.8907 49.4483 15.272C50.0883 14.6533 50.4083 13.704 50.4083 12.424V0.391998H56.4243V13.064C56.4243 14.856 56.0083 16.3707 55.1763 17.608C54.3656 18.824 53.2243 19.752 51.7523 20.392C50.3016 21.0107 48.6163 21.32 46.6963 21.32ZM59.1588 21V0.391998H68.3748C70.4868 0.391998 72.2894 0.743999 73.7828 1.448C75.2761 2.13067 76.4174 3.24 77.2068 4.776C77.9961 6.29067 78.3908 8.30667 78.3908 10.824C78.3908 14.3653 77.5268 16.9467 75.7987 18.568C74.0708 20.1893 71.5961 21 68.3748 21H59.1588ZM65.1748 16.392H67.6068C68.6094 16.392 69.4521 16.2533 70.1348 15.976C70.8174 15.6773 71.3401 15.1333 71.7028 14.344C72.0654 13.5333 72.2468 12.36 72.2468 10.824C72.2468 9.288 72.0761 8.104 71.7348 7.272C71.4148 6.41867 70.9134 5.832 70.2308 5.512C69.5481 5.17067 68.6734 5 67.6068 5H65.1748V16.392ZM80.6275 21V0.391998H86.6435V21H80.6275ZM99.4218 21.32C96.0084 21.32 93.3951 20.488 91.5818 18.824C89.7898 17.16 88.8938 14.472 88.8938 10.76C88.8938 8.2 89.2991 6.14133 90.1098 4.584C90.9204 3.00533 92.1044 1.864 93.6618 1.16C95.2404 0.434666 97.1604 0.0719986 99.4218 0.0719986C101.683 0.0719986 103.592 0.434666 105.15 1.16C106.728 1.864 107.923 3.00533 108.734 4.584C109.544 6.14133 109.95 8.2 109.95 10.76C109.95 14.472 109.043 17.16 107.23 18.824C105.416 20.488 102.814 21.32 99.4218 21.32ZM99.4218 16.2C100.958 16.2 102.067 15.7733 102.75 14.92C103.454 14.0453 103.806 12.6587 103.806 10.76C103.806 8.73333 103.454 7.304 102.75 6.472C102.067 5.61867 100.958 5.192 99.4218 5.192C97.8858 5.192 96.7658 5.61867 96.0618 6.472C95.3791 7.304 95.0378 8.73333 95.0378 10.76C95.0378 12.6587 95.3791 14.0453 96.0618 14.92C96.7658 15.7733 97.8858 16.2 99.4218 16.2Z" fill="white"/>
<path d="M118.753 21V0.391998H134.369V5H124.769V8.36H133.185V13.032H124.769V16.392H134.369V21H118.753ZM136.284 21V0.391998H141.404L149.18 11.304V0.391998H155.196V21H150.044L142.3 10.12V21H136.284ZM158.065 21V0.391998H173.681V5H164.081V8.36H172.497V13.032H164.081V16.392H173.681V21H158.065ZM175.596 21V0.391998H186.316C188.002 0.391998 189.378 0.701332 190.444 1.32C191.532 1.93867 192.343 2.80267 192.876 3.912C193.41 5 193.676 6.26933 193.676 7.72C193.676 9.10667 193.324 10.3333 192.62 11.4C191.938 12.4453 191.02 13.2453 189.868 13.8C190.103 13.992 190.306 14.2267 190.476 14.504C190.647 14.76 190.839 15.1227 191.052 15.592L193.42 21H187.148L184.972 16.04C184.802 15.656 184.588 15.3893 184.332 15.24C184.098 15.0693 183.756 14.984 183.308 14.984H181.612V21H175.596ZM181.612 10.376H184.78C185.655 10.376 186.327 10.152 186.796 9.704C187.287 9.23467 187.532 8.57333 187.532 7.72C187.532 5.90667 186.679 5 184.972 5H181.612V10.376ZM206.064 21.32C202.395 21.32 199.6 20.424 197.68 18.632C195.76 16.8187 194.8 14.2373 194.8 10.888C194.8 7.432 195.792 4.76533 197.776 2.888C199.76 1.01067 202.661 0.0719986 206.48 0.0719986C207.76 0.0719986 208.912 0.146666 209.936 0.296C210.981 0.445332 211.963 0.669332 212.88 0.967999V6.12C211.941 5.75733 210.971 5.512 209.968 5.384C208.965 5.256 207.941 5.192 206.896 5.192C204.912 5.192 203.419 5.64 202.416 6.536C201.435 7.432 200.944 8.88267 200.944 10.888C200.944 12.7653 201.371 14.12 202.224 14.952C203.099 15.784 204.379 16.2 206.064 16.2C206.619 16.2 207.141 16.168 207.632 16.104C208.123 16.0187 208.581 15.912 209.008 15.784V12.776H204.912V9.064H214.032V19.432C213.243 19.9227 212.187 20.36 210.864 20.744C209.563 21.128 207.963 21.32 206.064 21.32ZM221.63 21V13.448L214.206 0.391998H220.478L224.638 8.168L228.798 0.391998H235.07L227.646 13.448V21H221.63Z" fill="url(#paint0_linear_115_928)"/>
<defs>
<linearGradient id="paint0_linear_115_928" x1="118" y1="-2.00001" x2="118.047" y2="32.7238" gradientUnits="userSpaceOnUse">
<stop stop-color="#FF0000"/>
<stop offset="1" stop-color="#922F2F"/>
</linearGradient>
</defs>
</svg>
